<svg width="1024" height="1024" viewBox="0 0 1024 1024" fill="none" xmlns="http://www.w3.org/2000/svg">
<rect width="1024" height="1024" rx="320" fill="#0A0A0A"/>
<path fill-rule="evenodd" clip-rule="evenodd" d="M249 354.203C249 296.101 296.101 249 354.203 249C412.305 249 459.406 296.101 459.406 354.203V529.533C459.406 634.667 544.636 719.895 649.773 719.895C658.421 719.895 666.935 719.319 675.277 718.202C630.423 753.763 573.695 775 512.008 775C366.753 775 249 657.251 249 512V354.203Z" fill="white"/>
<path d="M535.977 368.511C535.977 302.507 589.484 249 655.489 249C721.493 249 775 302.507 775 368.511V516.545C775 582.55 721.493 636.057 655.489 636.057C589.484 636.057 535.977 582.55 535.977 516.545V368.511Z" fill="white"/>
</svg>
