<svg width="444" height="444" viewBox="0 0 444 444" fill="none" xmlns="http://www.w3.org/2000/svg">
<rect width="444" height="444" rx="222" fill="#0A0A0A"/>
<path fill-rule="evenodd" clip-rule="evenodd" d="M102 237.763C102 290.361 144.685 333 197.339 333H247.66C300.315 333 343 290.361 343 237.763V206.237C343 153.639 300.315 111 247.661 111L197.34 111C144.685 111 102 153.639 102 206.237L102 237.763ZM243.425 125.416L198.689 125.416C162.823 125.416 133.749 154.459 133.749 190.286C133.748 226.112 162.823 255.156 198.689 255.156H243.425C279.291 255.156 308.365 226.112 308.365 190.286C308.365 154.459 279.291 125.416 243.425 125.416Z" fill="white"/>
</svg>
