<svg width="261" height="261" viewBox="0 0 261 261" fill="none" xmlns="http://www.w3.org/2000/svg">
<g filter="url(#filter0_d_102_2)">
<path fill-rule="evenodd" clip-rule="evenodd" d="M130.5 253C60.636 253 4 196.364 4 126.5C4 56.636 60.636 -1.76393e-05 130.5 -1.76393e-05C200.364 -1.76393e-05 257 56.636 257 126.5C257 196.364 200.364 253 130.5 253ZM154.416 78.5172H128.947V143.027C128.947 146.594 128.139 149.774 126.524 152.567C124.908 155.36 122.657 157.548 119.77 159.129C116.917 160.711 113.583 161.502 109.768 161.502C105.953 161.502 102.602 160.711 99.7146 159.129C96.8275 157.548 94.5762 155.36 92.9608 152.567C91.3797 149.774 90.5892 146.594 90.5892 143.027V78.5172H65.069V145.198C65.069 152.904 66.925 159.617 70.637 165.338C74.3491 171.025 79.5562 175.433 86.2585 178.563C92.9608 181.659 100.797 183.207 109.768 183.207C118.636 183.207 126.421 181.659 133.123 178.563C139.825 175.433 145.05 171.025 148.796 165.338C152.542 159.617 154.416 152.904 154.416 145.198V78.5172ZM195.931 181.894V78.5172H170.411V181.894H195.931Z" fill="black"/>
</g>
<defs>
<filter id="filter0_d_102_2" x="0" y="0" width="261" height="261" filterUnits="userSpaceOnUse" color-interpolation-filters="sRGB">
<feFlood flood-opacity="0" result="BackgroundImageFix"/>
<feColorMatrix in="SourceAlpha" type="matrix" values="0 0 0 0 0 0 0 0 0 0 0 0 0 0 0 0 0 0 127 0" result="hardAlpha"/>
<feOffset dy="4"/>
<feGaussianBlur stdDeviation="2"/>
<feComposite in2="hardAlpha" operator="out"/>
<feColorMatrix type="matrix" values="0 0 0 0 0 0 0 0 0 0 0 0 0 0 0 0 0 0 0.25 0"/>
<feBlend mode="normal" in2="BackgroundImageFix" result="effect1_dropShadow_102_2"/>
<feBlend mode="normal" in="SourceGraphic" in2="effect1_dropShadow_102_2" result="shape"/>
</filter>
</defs>
</svg>
