<svg width="526" height="526" viewBox="0 0 526 526" fill="none" xmlns="http://www.w3.org/2000/svg">
<path fill-rule="evenodd" clip-rule="evenodd" d="M0 105.203C0 47.101 47.101 0 105.203 0C163.305 0 210.406 47.101 210.406 105.203V280.533C210.406 385.667 295.636 470.895 400.773 470.895C409.421 470.895 417.935 470.319 426.277 469.202C381.423 504.763 324.695 526 263.008 526C117.753 526 0 408.251 0 263V105.203Z" fill="white"/>
<path d="M286.977 119.511C286.977 53.507 340.484 0 406.489 0C472.493 0 526 53.507 526 119.511V267.545C526 333.55 472.493 387.057 406.489 387.057C340.484 387.057 286.977 333.55 286.977 267.545V119.511Z" fill="white"/>
</svg>
